<?xml version="1.0" encoding="utf-8"?>
<!-- Generator: Adobe Illustrator 18.1.1, SVG Export Plug-In . SVG Version: 6.00 Build 0)  -->
<!DOCTYPE svg PUBLIC "-//W3C//DTD SVG 1.1//EN" "http://www.w3.org/Graphics/SVG/1.1/DTD/svg11.dtd">
<svg version="1.1" id="Layer_1" xmlns="http://www.w3.org/2000/svg" xmlns:xlink="http://www.w3.org/1999/xlink" x="0px" y="0px"
	 viewBox="5094 5094 180 180" enable-background="new 5094 5094 180 180" xml:space="preserve">
<g>
	<g>
		<defs>
			<rect id="SVGID_1_" x="5094" y="5094" width="180" height="180"/>
		</defs>
		<clipPath id="SVGID_2_">
			<use xlink:href="#SVGID_1_"  overflow="visible"/>
		</clipPath>
		<path clip-path="url(#SVGID_2_)" fill="#FF9400" d="M5262.2,5274h-156.4c-6.6,0-11.8-5.4-11.8-11.8V5094h168.2
			c6.6,0,11.8,5.4,11.8,11.8V5262C5274,5268.6,5268.6,5274,5262.2,5274 M5108.4,5265.4h151.2c3.2,0,5.8-2.6,5.8-5.8v-151.2
			c0-3.2-2.6-5.8-5.8-5.8h-157v157C5102.6,5262.8,5105.2,5265.4,5108.4,5265.4"/>
	</g>
	<g>
		<defs>
			<rect id="SVGID_3_" x="5094" y="5094" width="180" height="180"/>
		</defs>
		<clipPath id="SVGID_4_">
			<use xlink:href="#SVGID_3_"  overflow="visible"/>
		</clipPath>
		<path clip-path="url(#SVGID_4_)" fill="#808184" d="M5147,5139.6h-1.6c-7.8,0-14.2,6.4-14.2,14.2v16.2c0,6,6,11.8,12.2,18
			c3.2,3,9.2,8.8,9.2,10.8v15.4c0,3.2-2.6,5.8-5.8,5.8h-1.6c-3,0-5.6-2.4-5.6-5.6v-16c0-0.8-0.6-1.2-1.2-1.2h-6
			c-0.8,0-1.2,0.6-1.2,1.2v15.8c0,7.8,6.4,14.2,14.2,14.2h1.6c8,0,14.4-6.4,14.4-14.4v-15.4c0-5.6-5.4-11-11.8-17
			c-3.6-3.4-9.6-9.4-9.6-11.8v-16.2c0-3.2,2.6-5.6,5.6-5.6h1.6c3.2,0,5.6,2.6,5.6,5.6v16.2c0,0.8,0.6,1.2,1.2,1.2h6
			c0.8,0,1.2-0.6,1.2-1.2v-16.2C5161.2,5145.8,5154.8,5139.6,5147,5139.6 M5238,5227l-7.6-41.2c4-2.6,6.4-7,6.4-12v-19
			c0-8-6.6-14.6-14.6-14.6H5208c-0.8,0-1.2,0.6-1.2,1.2v85.8c0,0.8,0.6,1.2,1.2,1.2h6c0.8,0,1.2-0.6,1.2-1.2v-78.4h6.8
			c3.2,0,6,2.6,6,6v19c0,3.2-2.6,6-6,6l0,0h-1.8l8.8,47.8c0.2,0.6,0.6,1,1.2,1h6.2C5237.6,5228.4,5238.2,5227.8,5238,5227
			 M5199,5141.2v85.8c0,0.8-0.6,1.2-1.2,1.2h-6c-0.8,0-1.2-0.6-1.2-1.2v-38.4h-12.8v38.6c0,0.8-0.6,1.2-1.2,1.2h-6
			c-0.8,0-1.2-0.6-1.2-1.2v-85.8c0-0.8,0.6-1.2,1.2-1.2h6c0.8,0,1.2,0.6,1.2,1.2v38.6h12.8v-38.8c0-0.8,0.6-1.2,1.2-1.2h6
			C5198.4,5140,5199,5140.6,5199,5141.2"/>
	</g>
</g>
</svg>
