<svg xmlns="http://www.w3.org/2000/svg" viewBox="0 0 329.447 83.409">
  <defs>
    <style>
      .cls-1 {
        fill: #13110c;
      }

      .cls-2 {
        fill: none;
      }
    </style>
  </defs>
  <g id="elite" transform="translate(0 0.1)">
    <path id="Path_1" data-name="Path 1" class="cls-1" d="M0,.3V30.134H17.393V26.326H4.316V17.058H16.5V13.249H4.316V4.109H16.885V.3Z" transform="translate(0 0.108)"/>
    <path id="Path_2" data-name="Path 2" class="cls-1" d="M39.874,26.326H26.416V.3H22.1V30.261H39.874Z" transform="translate(5.957 0.108)"/>
    <rect id="Rectangle_1" data-name="Rectangle 1" class="cls-1" width="4.316" height="29.834" transform="translate(55.733 0.408)"/>
    <path id="Path_3" data-name="Path 3" class="cls-1" d="M55.3,4.109H65.583V30.261h4.189V4.109h10.41V.3H55.3Z" transform="translate(14.906 0.108)"/>
    <path id="Path_4" data-name="Path 4" class="cls-1" d="M99.766,26.326H86.689V17.058H99V13.249H86.689V4.109h12.7V.3H82.5V30.134H99.766Z" transform="translate(22.237 0.108)"/>
    <path id="Path_5" data-name="Path 5" class="cls-1" d="M145.191,30.261V.3h-4.316V13.249H124.116V.3H119.8V30.261h4.316V17.185h16.758V30.261Z" transform="translate(32.291 0.108)"/>
    <path id="Path_6" data-name="Path 6" class="cls-1" d="M174.322,26.307a14.482,14.482,0,0,0,4.7-10.918,14.651,14.651,0,0,0-4.57-11.045,17.075,17.075,0,0,0-22.979,0,14.651,14.651,0,0,0-4.57,11.045,14.939,14.939,0,0,0,4.443,10.918,15.513,15.513,0,0,0,11.3,4.316,16.423,16.423,0,0,0,11.68-4.316M151.216,15.515A11.089,11.089,0,0,1,162.9,4.089a11.5,11.5,0,0,1,8.252,3.3,10.451,10.451,0,0,1,3.3,8,11,11,0,0,1-3.3,8.125,11.59,11.59,0,0,1-8.379,3.3,11.2,11.2,0,0,1-8.252-3.174,11.422,11.422,0,0,1-3.3-8.125" transform="translate(39.596)"/>
    <path id="Path_7" data-name="Path 7" class="cls-1" d="M201.31.3H176.3V4.109h10.283V30.261H190.9V4.109h10.41Z" transform="translate(47.521 0.108)"/>
    <path id="Path_8" data-name="Path 8" class="cls-1" d="M221.266,26.326H208.189V17.058H220.5V13.249H208.189V4.109h12.7V.3H204V30.134h17.266Z" transform="translate(54.987 0.108)"/>
    <path id="Path_9" data-name="Path 9" class="cls-1" d="M230.289.3H226.1V30.261h17.647V26.326H230.289Z" transform="translate(60.944 0.108)"/>
    <path id="Path_10" data-name="Path 10" class="cls-1" d="M257.5,14.219l-3.3-1.9A11.954,11.954,0,0,1,251.024,9.9a4.032,4.032,0,0,1-1.016-2.539,3.267,3.267,0,0,1,1.4-2.539,5.778,5.778,0,0,1,3.428-1.016,9.965,9.965,0,0,1,6.982,3.047v-4.7A12.487,12.487,0,0,0,254.96,0a9.367,9.367,0,0,0-6.348,2.158A7.4,7.4,0,0,0,246.2,7.871a7.086,7.086,0,0,0,1.27,4.189,16.5,16.5,0,0,0,4.316,3.682l3.3,2.031c2.666,1.65,3.936,3.3,3.936,5.205a3.548,3.548,0,0,1-1.4,2.793,4.972,4.972,0,0,1-3.3,1.143c-3.047,0-5.713-1.523-8-4.443V27.93a13.273,13.273,0,0,0,8.125,2.666,8.54,8.54,0,0,0,6.221-2.285,7.483,7.483,0,0,0,2.412-5.84c-.127-3.3-1.9-6.094-5.586-8.252" transform="translate(66.362 0.027)"/>
    <path id="Path_11" data-name="Path 11" class="cls-1" d="M38.483,61.686A11.239,11.239,0,0,0,46.1,58.893a9.491,9.491,0,0,0,3.047-7.236A9.491,9.491,0,0,0,46.1,44.42a10.665,10.665,0,0,0-7.49-2.92,10.449,10.449,0,0,0-7.49,2.92,9.388,9.388,0,0,0-2.92,7.236,9.773,9.773,0,0,0,2.92,7.109,10.362,10.362,0,0,0,7.363,2.92M32.009,51.656a6.316,6.316,0,0,1,1.9-4.7,6.6,6.6,0,0,1,4.824-1.9,6.316,6.316,0,0,1,4.7,1.9,6.233,6.233,0,0,1,1.9,4.57,6.316,6.316,0,0,1-1.9,4.7,7.063,7.063,0,0,1-9.649,0,6.218,6.218,0,0,1-1.777-4.57" transform="translate(7.601 11.213)"/>
    <path id="Path_12" data-name="Path 12" class="cls-1" d="M49.5,61.351h3.809V52.718h7.236V49.29H53.309V45.228h7.236V41.8H49.5Z" transform="translate(13.342 11.294)"/>
    <path id="Path_13" data-name="Path 13" class="cls-1" d="M88,55.646l-3.3-1.9a11.953,11.953,0,0,1-3.174-2.412,4.032,4.032,0,0,1-1.016-2.539,3.268,3.268,0,0,1,1.4-2.539,5.778,5.778,0,0,1,3.428-1.016,9.965,9.965,0,0,1,6.982,3.047V43.458A11.877,11.877,0,0,0,85.46,41.3a9.367,9.367,0,0,0-6.348,2.158A7.4,7.4,0,0,0,76.7,49.171a7.086,7.086,0,0,0,1.27,4.189,14.421,14.421,0,0,0,4.316,3.682l3.3,2.031c2.666,1.65,3.936,3.3,3.936,5.205a3.548,3.548,0,0,1-1.4,2.793,4.972,4.972,0,0,1-3.3,1.143c-3.047,0-5.713-1.523-8-4.443V69.23A13.273,13.273,0,0,0,84.952,71.9a8.54,8.54,0,0,0,6.221-2.285,7.483,7.483,0,0,0,2.412-5.84c-.127-3.174-2.031-5.84-5.586-8.125" transform="translate(20.674 11.159)"/>
    <path id="Path_14" data-name="Path 14" class="cls-1" d="M135.987,41.7l-8.125,20.694L119.483,41.7h-4.063l-8.252,20.694L98.916,41.7H94.6l12.061,30.088h.889l9.9-24.375,9.775,24.375h.889L140.3,41.7Z" transform="translate(25.499 11.267)"/>
    <path id="Path_15" data-name="Path 15" class="cls-1" d="M137.3,41.7V71.534h17.266V67.726H141.489V58.458H153.8V54.649H141.489V45.509h12.7V41.7Z" transform="translate(37.008 11.267)"/>
    <path id="Path_16" data-name="Path 16" class="cls-1" d="M178.878,43.577c-2.412-1.27-5.586-1.777-9.649-1.777H159.2V71.634h9.395a42.21,42.21,0,0,0,5.332-.254,16.738,16.738,0,0,0,8.125-4.063,15.551,15.551,0,0,0,3.3-4.824,14.348,14.348,0,0,0,1.143-5.713,15.155,15.155,0,0,0-2.158-7.744,12.594,12.594,0,0,0-5.459-5.459M179,64.525a8.875,8.875,0,0,1-2.158,1.65,12.73,12.73,0,0,1-2.92,1.143,24.336,24.336,0,0,1-4.951.381h-5.459V45.482h5.332a33.185,33.185,0,0,1,4.443.254,10.043,10.043,0,0,1,2.92,1.016,13.592,13.592,0,0,1,2.793,1.9,10.437,10.437,0,0,1,3.3,7.871,11.44,11.44,0,0,1-3.3,8" transform="translate(42.911 11.294)"/>
    <path id="Path_17" data-name="Path 17" class="cls-1" d="M187.2,41.7V71.534h17.393V67.726H191.516V58.458H203.7V54.649H191.516V45.509h12.568V41.7Z" transform="translate(50.459 11.267)"/>
    <path id="Path_18" data-name="Path 18" class="cls-1" d="M233.014,41.7V64.933L212.828,41.7H209.4V71.661h4.063V48.682l19.932,22.979h3.682V41.7Z" transform="translate(56.443 11.267)"/>
    <rect id="Rectangle_2" data-name="Rectangle 2" class="cls-1" width="36.563" height="3.809" transform="translate(36.055 78.993)"/>
    <rect id="Rectangle_3" data-name="Rectangle 3" class="cls-2" width="329.32" height="83.282" transform="translate(0 0.027)"/>
  </g>
</svg>
